mtllib material.mtl
o Default
v -2 0.75 -9.82134462645945e-9
v -2 1 -9.82134462645945e-9
v -2 1 1
v -2 0.75 1
v -2 0.75 1
v -2 1 2
v -2 1 1
v -2 0.75 2
v -1 0.75 -3.801021364324697e-8
v 0 0.75 1
v -1 0.7501304745674133 1.0000499486923218
v 0 0.75 -3.801021364324697e-8
v -2 0.75 1
v -1 0.75 2
v -2 0.75 2
v -1 0.7501304745674133 1.0000499486923218
v 0 0.75 -3.801021364324697e-8
v -1 1 0
v 0 1 -9.82134551463787e-9
v -1 0.75 -3.801021364324697e-8
v -1 0.75 -3.801021364324697e-8
v -2 1 -9.82134462645945e-9
v -1 1 0
v -2 0.75 -9.82134462645945e-9
v -2 0.75 -9.82134462645945e-9
v -1 0.7501304745674133 1.0000499486923218
v -2 0.75 1
v -1 0.75 -3.801021364324697e-8
v -1 0.7501304745674133 1.0000499486923218
v 0 0.75 2
v -1 0.75 2
v 0 0.75 1
v -2 1 2
v 0 1 -9.82134551463787e-9
v -2 1 -9.82134462645945e-9
v 0 1 2
v -2 0.75 2
v -1 1 2
v -2 1 2
v -1 0.75 2
v -1 0.75 2
v 0 1 2
v -1 1 2
v 0 0.75 2
v 0 0.75 1
v 0 1 -9.82134551463787e-9
v -1.1102230246251565e-16 1 1
v 0 0.75 -3.801021364324697e-8
v 0 0.75 2
v -1.1102230246251565e-16 1 1
v 0 1 2
v -3.3306690738754696e-16 0.75 1
vt 0 0.6666666865348816
vt 0.3333333432674408 1
vt 0 1
vt 0 0.6666666865348816
vt 0.3333333432674408 0.6666666865348816
vt 0.3333333432674408 1
vt 0 0.6666666865348816
vt 0.3333333432674408 1
vt 0 1
vt 0 0.6666666865348816
vt 0.3333333432674408 0.6666666865348816
vt 0.3333333432674408 1
vt 0 0.6666666865348816
vt 0.3333333432674408 1
vt 0 1
vt 0 0.6666666865348816
vt 0.3333333432674408 0.6666666865348816
vt 0.3333333432674408 1
vt 0 0.6666666865348816
vt 0.3333333432674408 1
vt 0 1
vt 0 0.6666666865348816
vt 0.3333333432674408 0.6666666865348816
vt 0.3333333432674408 1
vt 0 0.6666666865348816
vt 0.3333333432674408 1
vt 0 1
vt 0 0.6666666865348816
vt 0.3333333432674408 0.6666666865348816
vt 0.3333333432674408 1
vt 0 0.6666666865348816
vt 0.3333333432674408 1
vt 0 1
vt 0 0.6666666865348816
vt 0.3333333432674408 0.6666666865348816
vt 0.3333333432674408 1
vt 0 0.6666666865348816
vt 0.3333333432674408 1
vt 0 1
vt 0 0.6666666865348816
vt 0.3333333432674408 0.6666666865348816
vt 0.3333333432674408 1
vt 0 0.6666666865348816
vt 0.3333333432674408 1
vt 0 1
vt 0 0.6666666865348816
vt 0.3333333432674408 0.6666666865348816
vt 0.3333333432674408 1
vt 0.6666666865348816 0.6666666865348816
vt 1 1
vt 0.6666666865348816 1
vt 0.6666666865348816 0.6666666865348816
vt 1 0.6666666865348816
vt 1 1
vt 0 0.6666666865348816
vt 0.3333333432674408 1
vt 0 1
vt 0 0.6666666865348816
vt 0.3333333432674408 0.6666666865348816
vt 0.3333333432674408 1
vt 0 0.6666666865348816
vt 0.3333333432674408 1
vt 0 1
vt 0 0.6666666865348816
vt 0.3333333432674408 0.6666666865348816
vt 0.3333333432674408 1
vt 0 0.6666666865348816
vt 0.3333333432674408 1
vt 0 1
vt 0 0.6666666865348816
vt 0.3333333432674408 0.6666666865348816
vt 0.3333333432674408 1
vt 0 0.6666666865348816
vt 0.3333333432674408 1
vt 0 1
vt 0 0.6666666865348816
vt 0.3333333432674408 0.6666666865348816
vt 0.3333333432674408 1
vn -1 0 0
vn -1 0 0
vn -1 0 0
vn -1 0 0
vn -1 0 0
vn -1 0 0
vn -1 0 0
vn -1 0 0
vn -1 0 0
vn -1 0 0
vn -1 0 0
vn -1 0 0
vn -0.00013046804848423972 -0.9999999829780889 0.00013046804352512153
vn -0.00013046804848423972 -0.9999999829780889 0.00013046804352512153
vn -0.00013046804848423972 -0.9999999829780889 0.00013046804352512153
vn 0 -1 0
vn 0 -1 0
vn 0 -1 0
vn 0 -1 0
vn 0 -1 0
vn 0 -1 0
vn 0.0001304810825514059 -0.9999999829746871 -0.0001304810825514059
vn 0.0001304810825514059 -0.9999999829746871 -0.0001304810825514059
vn 0.0001304810825514059 -0.9999999829746871 -0.0001304810825514059
vn -9.821345514637806e-9 1.1275547251443568e-7 -0.9999999999999936
vn -9.821345514637806e-9 1.1275547251443568e-7 -0.9999999999999936
vn -9.821345514637806e-9 1.1275547251443568e-7 -0.9999999999999936
vn 0 1.5204085457298614e-7 -0.9999999999999885
vn 0 1.5204085457298614e-7 -0.9999999999999885
vn 0 1.5204085457298614e-7 -0.9999999999999885
vn 9.821344626459335e-9 1.5204085457298614e-7 -0.9999999999999885
vn 9.821344626459335e-9 1.5204085457298614e-7 -0.9999999999999885
vn 9.821344626459335e-9 1.5204085457298614e-7 -0.9999999999999885
vn -2.8188869016787508e-8 0 -0.9999999999999996
vn -2.8188869016787508e-8 0 -0.9999999999999996
vn -2.8188869016787508e-8 0 -0.9999999999999996
vn 0.00013047456630275583 -0.9999999914881937 0
vn 0.00013047456630275583 -0.9999999914881937 0
vn 0.00013047456630275583 -0.9999999914881937 0
vn 3.677746621107323e-12 -0.9999999914890446 0.00013046804463552928
vn 3.677746621107323e-12 -0.9999999914890446 0.00013046804463552928
vn 3.677746621107323e-12 -0.9999999914890446 0.00013046804463552928
vn 0 -0.9999999914873434 -0.00013048108366214655
vn 0 -0.9999999914873434 -0.00013048108366214655
vn 0 -0.9999999914873434 -0.00013048108366214655
vn -0.00013047456630275583 -0.9999999914881937 0
vn -0.00013047456630275583 -0.9999999914881937 0
vn -0.00013047456630275583 -0.9999999914881937 0
vn 0 1 0
vn 0 1 0
vn 0 1 0
vn 0 1 0
vn 0 1 0
vn 0 1 0
vn 0 0 1
vn 0 0 1
vn 0 0 1
vn 0 0 1
vn 0 0 1
vn 0 0 1
vn 0 0 1
vn 0 0 1
vn 0 0 1
vn 0 0 1
vn 0 0 1
vn 0 0 1
vn 1 4.440892098500626e-16 1.1102230137212727e-16
vn 1 4.440892098500626e-16 1.1102230137212727e-16
vn 1 4.440892098500626e-16 1.1102230137212727e-16
vn 1 0 0
vn 1 0 0
vn 1 0 0
vn 1 0 -1.1102230246251565e-16
vn 1 0 -1.1102230246251565e-16
vn 1 0 -1.1102230246251565e-16
vn 1 -8.881784197001252e-16 -3.3306690738754696e-16
vn 1 -8.881784197001252e-16 -3.3306690738754696e-16
vn 1 -8.881784197001252e-16 -3.3306690738754696e-16
g Goal
usemtl material8
f 1/1/1 3/2/2 2/3/3
f 1/4/4 4/5/5 3/6/6
f 5/7/7 6/8/8 7/9/9
f 5/10/10 8/11/11 6/12/12
f 9/13/13 10/14/14 11/15/15
f 9/16/16 12/17/17 10/18/18
f 13/19/19 14/20/20 15/21/21
f 13/22/22 16/23/23 14/24/24
f 17/25/25 18/26/26 19/27/27
f 17/28/28 20/29/29 18/30/30
f 21/31/31 22/32/32 23/33/33
f 21/34/34 24/35/35 22/36/36
f 25/37/37 26/38/38 27/39/39
f 25/40/40 28/41/41 26/42/42
f 29/43/43 30/44/44 31/45/45
f 29/46/46 32/47/47 30/48/48
f 33/49/49 34/50/50 35/51/51
f 33/52/52 36/53/53 34/54/54
f 37/55/55 38/56/56 39/57/57
f 37/58/58 40/59/59 38/60/60
f 41/61/61 42/62/62 43/63/63
f 41/64/64 44/65/65 42/66/66
f 45/67/67 46/68/68 47/69/69
f 45/70/70 48/71/71 46/72/72
f 49/73/73 50/74/74 51/75/75
f 49/76/76 52/77/77 50/78/78
