mtllib material.mtl
o Default
v -2 0 0
v 0 0.25 0
v -2 0.25 0
v 0 0 0
v 0 0 0
v 0 0.25 -1.5
v 0 0.25 0
v 0 0 -1.5
v -2 0.25 0
v 0 0.25 -1.5
v -2 0.25 -1.5
v 0 0.25 0
v -2 0 -1.5
v -2 0.25 0
v -2 0.25 -1.5
v -2 0 0
v -2 0 -1.5
v 0 0 0
v -2 0 0
v 0 0 -1.5
v -2 0.00002089392364723608 -1.9999499320983887
v 0 0 -1.5
v -2 0 -1.5
v 0 0.000020885625417577103 -1.9999499320983887
v 0 0 -1.5
v 0 0.75 -2
v 0 0.75 -1.5
v 0 0.000020885625417577103 -1.9999499320983887
v -2 0.00002089392364723608 -1.9999499320983887
v -2 0.75 -1.5
v -2 0.75 -2
v -2 0 -1.5
v -2 0.25 -1.5
v 0 0.75 -1.5
v -2 0.75 -1.5
v 0 0.25 -1.5
v -2 0.75 -1.5
v 0 0.75 -2
v -2 0.75 -2
v 0 0.75 -1.5
v 0 0.000020885625417577103 -1.9999499320983887
v -2 0.75 -2
v 0 0.75 -2
v -2 0 -2
vt 0 0
vt 0.3333333432674408 0.25
vt 0 0.25
vt 0 0
vt 0.3333333432674408 0
vt 0.3333333432674408 0.25
vt 0 0
vt 0.3333333432674408 0.25
vt 0 0.25
vt 0 0
vt 0.3333333432674408 0
vt 0.3333333432674408 0.25
vt 0 0.3333333134651184
vt 0.3333333432674408 0.6666666865348816
vt 0 0.6666666865348816
vt 0 0.3333333134651184
vt 0.3333333432674408 0.3333333134651184
vt 0.3333333432674408 0.6666666865348816
vt 0 0
vt 0.3333333432674408 0.25
vt 0 0.25
vt 0 0
vt 0.3333333432674408 0
vt 0.3333333432674408 0.25
vt 0 0
vt 0.3333333432674408 0.25
vt 0 0.25
vt 0 0
vt 0.3333333432674408 0
vt 0.3333333432674408 0.25
vt 0 0
vt 0.3333333432674408 0.3333333432674408
vt 0 0.3333333432674408
vt 0 0
vt 0.3333333432674408 0
vt 0.3333333432674408 0.3333333432674408
vt 0 0
vt 0.3333333432674408 0.3333333432674408
vt 0 0.3333333432674408
vt 0 0
vt 0.3333333432674408 0
vt 0.3333333432674408 0.3333333432674408
vt 0 0
vt 0.3333333432674408 0.3333333432674408
vt 0 0.3333333432674408
vt 0 0
vt 0.3333333432674408 0
vt 0.3333333432674408 0.3333333432674408
vt 0 0.5833333134651184
vt 0.3333333432674408 0.6666666865348816
vt 0 0.6666666865348816
vt 0 0.5833333134651184
vt 0.3333333432674408 0.5833333134651184
vt 0.3333333432674408 0.6666666865348816
vt 0 0
vt 0.3333333432674408 0.3333333432674408
vt 0 0.3333333432674408
vt 0 0
vt 0.3333333432674408 0
vt 0.3333333432674408 0.3333333432674408
vt 0 0
vt 0.3333333432674408 0.3333333432674408
vt 0 0.3333333432674408
vt 0 0
vt 0.3333333432674408 0
vt 0.3333333432674408 0.3333333432674408
vn 0 0 1
vn 0 0 1
vn 0 0 1
vn 0 0 1
vn 0 0 1
vn 0 0 1
vn 1 0 0
vn 1 0 0
vn 1 0 0
vn 1 0 0
vn 1 0 0
vn 1 0 0
vn 0 1 0
vn 0 1 0
vn 0 1 0
vn 0 1 0
vn 0 1 0
vn 0 1 0
vn -1 0 0
vn -1 0 0
vn -1 0 0
vn -1 0 0
vn -1 0 0
vn -1 0 0
vn 0 -1 0
vn 0 -1 0
vn 0 -1 0
vn 0 -1 0
vn 0 -1 0
vn 0 -1 0
vn 0 -0.9999999991267131 -0.00004179203213668569
vn 0 -0.9999999991267131 -0.00004179203213668569
vn 0 -0.9999999991267131 -0.00004179203213668569
vn -4.149114825867608e-9 -0.9999999991274064 -0.000041775434015344984
vn -4.149114825867608e-9 -0.9999999991274064 -0.000041775434015344984
vn -4.149114825867608e-9 -0.9999999991274064 -0.000041775434015344984
vn 1 0 0
vn 1 0 0
vn 1 0 0
vn 0.9999999999999999 0 0
vn 0.9999999999999999 0 0
vn 0.9999999999999999 0 0
vn -1 0 0
vn -1 0 0
vn -1 0 0
vn -1 0 0
vn -1 0 0
vn -1 0 0
vn 0 0 1
vn 0 0 1
vn 0 0 1
vn 0 0 1
vn 0 0 1
vn 0 0 1
vn 0 1 0
vn 0 1 0
vn 0 1 0
vn 0 1 0
vn 0 1 0
vn 0 1 0
vn 0 -0.00006675906107266707 -0.999999997771614
vn 0 -0.00006675906107266707 -0.999999997771614
vn 0 -0.00006675906107266707 -0.999999997771614
vn 0.00002503395079781969 0 -0.9999999996866507
vn 0.00002503395079781969 0 -0.9999999996866507
vn 0.00002503395079781969 0 -0.9999999996866507
g Stapler Bottom
usemtl material10
f 1/1/1 2/2/2 3/3/3
f 1/4/4 4/5/5 2/6/6
f 5/7/7 6/8/8 7/9/9
f 5/10/10 8/11/11 6/12/12
f 9/13/13 10/14/14 11/15/15
f 9/16/16 12/17/17 10/18/18
f 13/19/19 14/20/20 15/21/21
f 13/22/22 16/23/23 14/24/24
f 17/25/25 18/26/26 19/27/27
f 17/28/28 20/29/29 18/30/30
f 21/31/31 22/32/32 23/33/33
f 21/34/34 24/35/35 22/36/36
f 25/37/37 26/38/38 27/39/39
f 25/40/40 28/41/41 26/42/42
f 29/43/43 30/44/44 31/45/45
f 29/46/46 32/47/47 30/48/48
f 33/49/49 34/50/50 35/51/51
f 33/52/52 36/53/53 34/54/54
f 37/55/55 38/56/56 39/57/57
f 37/58/58 40/59/59 38/60/60
f 41/61/61 42/62/62 43/63/63
f 41/64/64 44/65/65 42/66/66
