mtllib material.mtl
o Default
v -2 1 0.25
v -2 1.9999278783798218 0.24994999170303345
v -1 1.9999371767044067 0.24994999170303345
v -1 1 0.25
v -1 1 0.25
v 0 1.9999371767044067 0.24994999170303345
v -1 1.9999371767044067 0.24994999170303345
v 0 1 0.25
v -1 0 0.25
v 0 1 0.25
v -1 1 0.25
v 0 -0.00018775463104248047 0.24994996190071106
v -2 -0.00018775463104248047 0.24994996190071106
v -1 1 0.25
v -2 1 0.25
v -1 0 0.25
v -2 1 0
v -2 1.9999278783798218 0.24994999170303345
v -2 1.9999998807907104 0
v -2 1 0.25
v -1 1 5.797218260994441e-9
v -2 1.9999998807907104 0
v -1 1.9999998807907104 5.797218260994441e-9
v -2 1 0
v -2 0 0
v -2 1 0.25
v -2 1 0
v -2 -0.00018775463104248047 0.24994996190071106
v -1 -0.00005459785461425781 -0.00005000249802833423
v -2 1 0
v -1 1 5.797218260994441e-9
v -2 0 0
v -2 1.9999278783798218 0.24994999170303345
v -1 1.9999998807907104 5.797218260994441e-9
v -2 1.9999998807907104 0
v -1 1.9999371767044067 0.24994999170303345
v -1 1.9999371767044067 0.24994999170303345
v 0 1.9999998807907104 5.797216484637602e-9
v -1 1.9999998807907104 5.797218260994441e-9
v 0 1.9999371767044067 0.24994999170303345
v 0 1 5.797218260994441e-9
v -1 1.9999998807907104 5.797218260994441e-9
v 0 1.9999998807907104 5.797216484637602e-9
v -1 1 5.797218260994441e-9
v 0 0 5.797218260994441e-9
v -1 1 5.797218260994441e-9
v 0 1 5.797218260994441e-9
v -1 -0.00005459785461425781 -0.00005000249802833423
v -1 -0.00005459785461425781 -0.00005000249802833423
v 0 -0.00018775463104248047 0.24994996190071106
v -1 0 0.25
v 0 0 5.797218260994441e-9
v -2 0 0
v -1 0 0.25
v -2 -0.00018775463104248047 0.24994996190071106
v -1 -0.00005459785461425781 -0.00005000249802833423
v 0 -0.00018775463104248047 0.24994996190071106
v 0 1 5.797218260994441e-9
v 0 1 0.25
v 0 0 5.797218260994441e-9
v 0 1 0.25
v 0 1.9999998807907104 5.797216484637602e-9
v 0 1.9999371767044067 0.24994999170303345
v 0 1 1.6653345369377348e-16
vt 0.5 1
vt 0 0
vt 0.5 0
vt 0.5 1
vt 0 1
vt 0 0
vt 0 1
vt 0.5 0
vt 0.5 1
vt 0 1
vt 0 0
vt 0.5 0
vt 0 0
vt 0.5 1
vt 0 1
vt 0 0
vt 0.5 0
vt 0.5 1
vt 0.5 0
vt 0 1
vt 0 0
vt 0.5 0
vt 0.5 1
vt 0 1
vt 0.5 0
vt 1 1
vt 0.5 1
vt 0.5 0
vt 1 0
vt 1 1
vt 0 1
vt 0.5 0
vt 0.5 1
vt 0 1
vt 0 0
vt 0.5 0
vt 0.5 0
vt 1 1
vt 0.5 1
vt 0.5 0
vt 1 0
vt 1 1
vt 0 0
vt 0.5 1
vt 0 1
vt 0 0
vt 0.5 0
vt 0.5 1
vt 0.5 0
vt 1 1
vt 0.5 1
vt 0.5 0
vt 1 0
vt 1 1
vt 0.5 0
vt 1 1
vt 0.5 1
vt 0.5 0
vt 1 0
vt 1 1
vt 0.5 1
vt 0 0
vt 0.5 0
vt 0.5 1
vt 0 1
vt 0 0
vt 0.5 0
vt 0 1
vt 0 0
vt 0.5 0
vt 0.5 1
vt 0 1
vt 0.5 0
vt 1 1
vt 0.5 1
vt 0.5 0
vt 1 0
vt 1 1
vt 0.5 0
vt 1 1
vt 0.5 1
vt 0.5 0
vt 1 0
vt 1 1
vt 0.5 0
vt 1 1
vt 0.5 1
vt 0.5 0
vt 1 0
vt 1 1
vt 0.5 0
vt 1 1
vt 0.5 1
vt 0.5 0
vt 1 0
vt 1 1
vn -4.6502691504914606e-10 0.000050011903843545987 0.9999999987494047
vn -4.6502691504914606e-10 0.000050011903843545987 0.9999999987494047
vn -4.6502691504914606e-10 0.000050011903843545987 0.9999999987494047
vn 0 0.000050011438787415744 0.9999999987494279
vn 0 0.000050011438787415744 0.9999999987494279
vn 0 0.000050011438787415744 0.9999999987494279
vn 0 0.000050011438787415744 0.9999999987494279
vn 0 0.000050011438787415744 0.9999999987494279
vn 0 0.000050011438787415744 0.9999999987494279
vn 0 0.000050011438787415744 0.9999999987494279
vn 0 0.000050011438787415744 0.9999999987494279
vn 0 0.000050011438787415744 0.9999999987494279
vn 0 0 1
vn 0 0 1
vn 0 0 1
vn 0.00005002870604245697 -0.00005002870604245697 0.9999999974971286
vn 0.00005002870604245697 -0.00005002870604245697 0.9999999974971286
vn 0.00005002870604245697 -0.00005002870604245697 0.9999999974971286
vn 0 -0.00005002870610506467 0.9999999987485643
vn 0 -0.00005002870610506467 0.9999999987485643
vn 0 -0.00005002870610506467 0.9999999987485643
vn -0.00005003809922629745 0 0.9999999987480943
vn -0.00005003809922629745 0 0.9999999987480943
vn -0.00005003809922629745 0 0.9999999987480943
vn -0.9999999999999999 0 0
vn -0.9999999999999999 0 0
vn -0.9999999999999999 0 0
vn -1 0 0
vn -1 0 0
vn -1 0 0
vn 5.797218260994441e-9 0 -1
vn 5.797218260994441e-9 0 -1
vn 5.797218260994441e-9 0 -1
vn 5.797218260994441e-9 0 -1
vn 5.797218260994441e-9 0 -1
vn 5.797218260994441e-9 0 -1
vn -1 0 0
vn -1 0 0
vn -1 0 0
vn -1 0 0
vn -1 0 0
vn -1 0 0
vn 5.797218253746306e-9 0.00005000556498750385 -0.9999999987497218
vn 5.797218253746306e-9 0.00005000556498750385 -0.9999999987497218
vn 5.797218253746306e-9 0.00005000556498750385 -0.9999999987497218
vn -0.000050002497965824866 0 -0.9999999987498751
vn -0.000050002497965824866 0 -0.9999999987498751
vn -0.000050002497965824866 0 -0.9999999987498751
vn -1.6699887488546007e-12 0.9999999585086277 0.0002880672546160328
vn -1.6699887488546007e-12 0.9999999585086277 0.0002880672546160328
vn -1.6699887488546007e-12 0.9999999585086277 0.0002880672546160328
vn -0.000009298324291968531 0.9999999684897635 0.0002508665247595499
vn -0.000009298324291968531 0.9999999684897635 0.0002508665247595499
vn -0.000009298324291968531 0.9999999684897635 0.0002508665247595499
vn 4.456284670524631e-19 0.9999999685329929 0.00025086652477039476
vn 4.456284670524631e-19 0.9999999685329929 0.00025086652477039476
vn 4.456284670524631e-19 0.9999999685329929 0.00025086652477039476
vn 0 0.9999999685329929 0.00025086652477039297
vn 0 0.9999999685329929 0.00025086652477039297
vn 0 0.9999999685329929 0.00025086652477039297
vn -1.7763568394002505e-15 -1.7763570511585125e-15 -1
vn -1.7763568394002505e-15 -1.7763570511585125e-15 -1
vn -1.7763568394002505e-15 -1.7763570511585125e-15 -1
vn 0 0 -1
vn 0 0 -1
vn 0 0 -1
vn 0 0 -1
vn 0 0 -1
vn 0 0 -1
vn 0.000050005564924982986 0.000050005564924982986 -0.9999999974994436
vn 0.000050005564924982986 0.000050005564924982986 -0.9999999974994436
vn 0.000050005564924982986 0.000050005564924982986 -0.9999999974994436
vn -0.00018774369755207403 -0.9999999585382837 0.0002183477376728583
vn -0.00018774369755207403 -0.9999999585382837 0.0002183477376728583
vn -0.00018774369755207403 -0.9999999585382837 0.0002183477376728583
vn 0.00005463540379419747 -0.9999997163802556 -0.0007511686767963241
vn 0.00005463540379419747 -0.9999997163802556 -0.0007511686767963241
vn 0.00005463540379419747 -0.9999997163802556 -0.0007511686767963241
vn 0.00018779216181247582 -0.9999997002398388 -0.0007511686472499033
vn 0.00018779216181247582 -0.9999997002398388 -0.0007511686472499033
vn 0.00018779216181247582 -0.9999997002398388 -0.0007511686472499033
vn -0.00005458693529891918 -0.9999999746722648 0.00021834774119567672
vn -0.00005458693529891918 -0.9999999746722648 0.00021834774119567672
vn -0.00005458693529891918 -0.9999999746722648 0.00021834774119567672
vn 1 0 0
vn 1 0 0
vn 1 0 0
vn 1 0 0
vn 1 0 0
vn 1 0 0
vn 1 0 0
vn 1 0 0
vn 1 0 0
vn 1 0 0
vn 1 0 0
vn 1 0 0
g Door Grey
usemtl material2
f 1/1/1 3/2/2 2/3/3
f 1/4/4 4/5/5 3/6/6
f 5/7/7 6/8/8 7/9/9
f 5/10/10 8/11/11 6/12/12
f 9/13/13 10/14/14 11/15/15
f 9/16/16 12/17/17 10/18/18
f 13/19/19 14/20/20 15/21/21
f 13/22/22 16/23/23 14/24/24
f 17/25/25 18/26/26 19/27/27
f 17/28/28 20/29/29 18/30/30
f 21/31/31 22/32/32 23/33/33
f 21/34/34 24/35/35 22/36/36
f 25/37/37 26/38/38 27/39/39
f 25/40/40 28/41/41 26/42/42
f 29/43/43 30/44/44 31/45/45
f 29/46/46 32/47/47 30/48/48
f 33/49/49 34/50/50 35/51/51
f 33/52/52 36/53/53 34/54/54
f 37/55/55 38/56/56 39/57/57
f 37/58/58 40/59/59 38/60/60
f 41/61/61 42/62/62 43/63/63
f 41/64/64 44/65/65 42/66/66
f 45/67/67 46/68/68 47/69/69
f 45/70/70 48/71/71 46/72/72
f 49/73/73 50/74/74 51/75/75
f 49/76/76 52/77/77 50/78/78
f 53/79/79 54/80/80 55/81/81
f 53/82/82 56/83/83 54/84/84
f 57/85/85 58/86/86 59/87/87
f 57/88/88 60/89/89 58/90/90
f 61/91/91 62/92/92 63/93/93
f 61/94/94 64/95/95 62/96/96
